<svg width="60" height="60" viewBox="0 0 60 60" fill="none" xmlns="http://www.w3.org/2000/svg">
<g clip-path="url(#clip0_1734_981)">
<path d="M6 60L0 54L20.4 33.6L26.4 39.6L6 60ZM38.4 48H44.4L60 32.4V26.4L33.6 0H27.6L12 15.6V21.6L38.4 48ZM51.6 13.2C51.8364 13.4364 52.117 13.6239 52.4258 13.7518C52.7347 13.8797 53.0657 13.9456 53.4 13.9456C53.7343 13.9456 54.0653 13.8797 54.3742 13.7518C54.683 13.6239 54.9636 13.4364 55.2 13.2C55.4364 12.9636 55.6239 12.683 55.7518 12.3742C55.8797 12.0653 55.9456 11.7343 55.9456 11.4C55.9456 11.0657 55.8797 10.7347 55.7518 10.4258C55.6239 10.117 55.4364 9.83638 55.2 9.6L50.4 4.8C49.9226 4.32261 49.2751 4.05442 48.6 4.05442C47.9249 4.05442 47.2774 4.32261 46.8 4.8C46.3226 5.27739 46.0544 5.92487 46.0544 6.6C46.0544 7.27513 46.3226 7.92261 46.8 8.4L51.6 13.2Z" fill="#F43E44"/>
</g>
<defs>
<clipPath id="clip0_1734_981">
<rect width="60" height="60" fill="white"/>
</clipPath>
</defs>
</svg>
