<svg width="60" height="60" viewBox="0 0 60 60" fill="none" xmlns="http://www.w3.org/2000/svg">
<path d="M30.0004 5.48389C16.2154 5.48389 5.00037 16.7039 5.00037 30.4839C5.00037 44.2739 16.2154 55.4839 30.0004 55.4839C43.7854 55.4839 55.0004 44.2739 55.0004 30.4839C55.0004 16.7039 43.7854 5.48389 30.0004 5.48389ZM30.0004 17.3639C30.4107 17.3639 30.8171 17.4447 31.1963 17.6018C31.5754 17.7588 31.9199 17.989 32.2101 18.2792C32.5003 18.5694 32.7304 18.9139 32.8875 19.293C33.0445 19.6721 33.1254 20.0785 33.1254 20.4889C33.1254 20.8993 33.0445 21.3056 32.8875 21.6848C32.7304 22.0639 32.5003 22.4084 32.2101 22.6986C31.9199 22.9888 31.5754 23.219 31.1963 23.376C30.8171 23.5331 30.4107 23.6139 30.0004 23.6139C29.1716 23.6139 28.3767 23.2846 27.7907 22.6986C27.2046 22.1125 26.8754 21.3177 26.8754 20.4889C26.8754 19.6601 27.2046 18.8652 27.7907 18.2792C28.3767 17.6931 29.1716 17.3639 30.0004 17.3639ZM37.5004 42.9839H22.5004V37.9839H27.5004V30.4839H25.0004V25.4839H30.0004C30.6634 25.4839 31.2993 25.7473 31.7681 26.2161C32.237 26.685 32.5004 27.3208 32.5004 27.9839V37.9839H37.5004V42.9839Z" fill="white" fill-opacity="0.6"/>
</svg>
