<svg xmlns="http://www.w3.org/2000/svg" xmlns:xlink="http://www.w3.org/1999/xlink" viewBox="0 0 24 24" width="24" height="24" preserveAspectRatio="xMidYMid meet" style="width: 100%; height: 100%; transform: translate3d(0px, 0px, 0px); content-visibility: visible;"><defs><clipPath id="__lottie_element_838"><rect width="24" height="24" x="0" y="0"></rect></clipPath><clipPath id="__lottie_element_840"><path d="M0,0 L600,0 L600,600 L0,600z"></path></clipPath><g id="__lottie_element_845"><g style="display: block;" transform="matrix(25,0,0,25,300,300)" opacity="1"><g opacity="1" transform="matrix(1,0,0,1,0,0)"><path fill="rgb(156 163 175)" fill-opacity="1" d=" M-5.5,-2 C-4.671999931335449,-2 -4,-2.671999931335449 -4,-3.5 C-4,-4.328000068664551 -4.671999931335449,-5 -5.5,-5 C-6.328000068664551,-5 -7,-4.328000068664551 -7,-3.5 C-7,-2.671999931335449 -6.328000068664551,-2 -5.5,-2z M7,-3.5 C7,-2.671999931335449 6.328000068664551,-2 5.5,-2 C4.671999931335449,-2 4,-2.671999931335449 4,-3.5 C4,-4.328000068664551 4.671999931335449,-5 5.5,-5 C6.328000068664551,-5 7,-4.328000068664551 7,-3.5z M-2.9110000133514404,-0.5559999942779541 C-3.2179999351501465,-1.0149999856948853 -3.8399999141693115,-1.1380000114440918 -4.298999786376953,-0.8309999704360962 C-4.757999897003174,-0.5239999890327454 -4.880000114440918,0.09700000286102295 -4.572999954223633,0.5559999942779541 C-3.5880000591278076,2.0269999504089355 -1.9079999923706055,3 0,3 C1.9079999923706055,3 3.5880000591278076,2.0269999504089355 4.572999954223633,0.5559999942779541 C4.880000114440918,0.09700000286102295 4.756999969482422,-0.5239999890327454 4.297999858856201,-0.8309999704360962 C3.8389999866485596,-1.1380000114440918 3.2179999351501465,-1.0149999856948853 2.9110000133514404,-0.5559999942779541 C2.2809998989105225,0.38499999046325684 1.2120000123977661,1 0,1 C-1.2120000123977661,1 -2.2809998989105225,0.38499999046325684 -2.9110000133514404,-0.5559999942779541z"></path></g></g></g><g id="__lottie_element_855"><g clip-path="url(#__lottie_element_856)" transform="matrix(1,0,0,1,0,0)" opacity="1" style="display: none;"><g style="display: none;"><g><path></path></g></g><g style="display: none;"><g><path></path></g></g><g style="display: none;"><g><path stroke-linecap="round" stroke-linejoin="miter" fill-opacity="0" stroke-miterlimit="4"></path></g></g><g style="display: none;"><g><path stroke-linecap="butt" stroke-linejoin="miter" fill-opacity="0" stroke-miterlimit="4"></path></g></g><g clip-path="url(#__lottie_element_862)" style="display: none;"><g><path></path></g></g></g></g><clipPath id="__lottie_element_856"><path d="M0,0 L600,0 L600,600 L0,600z"></path></clipPath><clipPath id="__lottie_element_862"><path fill="rgb(156 163 175)" clip-rule="nonzero"></path><path fill="rgb(156 163 175)" clip-rule="nonzero"></path></clipPath><filter id="__lottie_element_879" filterUnits="objectBoundingBox" x="0%" y="0%" width="100%" height="100%"><feComponentTransfer in="SourceGraphic"><feFuncA type="table" tableValues="1.0 0.0"></feFuncA></feComponentTransfer></filter><mask id="__lottie_element_855_2" mask-type="alpha"><g filter="url(#__lottie_element_879)"><rect width="600" height="600" x="0" y="0" fill="rgb(156 163 175)" opacity="0"></rect><use xlink:href="#__lottie_element_855"></use></g></mask><filter id="__lottie_element_880" filterUnits="objectBoundingBox" x="0%" y="0%" width="100%" height="100%"><feComponentTransfer in="SourceGraphic"><feFuncA type="table" tableValues="1.0 0.0"></feFuncA></feComponentTransfer></filter><mask id="__lottie_element_845_2" mask-type="alpha"><g filter="url(#__lottie_element_880)"><rect width="600" height="600" x="0" y="0" fill="rgb(156 163 175)" opacity="0"></rect><use xlink:href="#__lottie_element_845"></use></g></mask></defs><g clip-path="url(#__lottie_element_838)"><g clip-path="url(#__lottie_element_840)" transform="matrix(0.03999999910593033,0,0,0.03999999910593033,0,0)" opacity="1" style="display: block;"><g mask="url(#__lottie_element_855_2)" style="display: none;"><g><g><path></path></g></g></g><g transform="matrix(25,0,0,25,300,300)" opacity="1" style="display: none;"><g opacity="1" transform="matrix(1,0,0,1,0,0)"><path fill="rgb(88,101,242)" fill-opacity="1" d=" M-6,-10 C-6,-10 6,-10 6,-10 C8.208999633789062,-10 10,-8.208999633789062 10,-6 C10,-6 10,1.5 10,1.5 C10,1.7760000228881836 9.776000022888184,2 9.5,2 C9.5,2 7,2 7,2 C4.238999843597412,2 2,4.238999843597412 2,7 C2,7 2,9.5 2,9.5 C2,9.776000022888184 1.7760000228881836,10 1.5,10 C1.5,10 -6,10 -6,10 C-8.208999633789062,10 -10,8.208999633789062 -10,6 C-10,6 -10,-6 -10,-6 C-10,-8.208999633789062 -8.208999633789062,-10 -6,-10z M9.659000396728516,4 C9.692000389099121,4 9.71399974822998,4.033999919891357 9.699999809265137,4.064000129699707 C9.555000305175781,4.36299991607666 9.359999656677246,4.639999866485596 9.121000289916992,4.879000186920166 C9.121000289916992,4.879000186920166 4.879000186920166,9.121000289916992 4.879000186920166,9.121000289916992 C4.639999866485596,9.359999656677246 4.36299991607666,9.555000305175781 4.064000129699707,9.699999809265137 C4.033999919891357,9.71399974822998 4,9.692000389099121 4,9.659000396728516 C4,9.659000396728516 4,9.17199993133545 4,9.17199993133545 C4,9.17199993133545 4,7 4,7 C4,5.3429999351501465 5.3429999351501465,4 7,4 C7,4 9.17199993133545,4 9.17199993133545,4 C9.17199993133545,4 9.659000396728516,4 9.659000396728516,4z M-5.5,-2 C-4.671999931335449,-2 -4,-2.671999931335449 -4,-3.5 C-4,-4.328000068664551 -4.671999931335449,-5 -5.5,-5 C-6.328000068664551,-5 -7,-4.328000068664551 -7,-3.5 C-7,-2.671999931335449 -6.328000068664551,-2 -5.5,-2z M7,-3.5 C7,-4.328000068664551 6.328000068664551,-5 5.5,-5 C4.671999931335449,-5 4,-4.328000068664551 4,-3.5 C4,-2.671999931335449 4.671999931335449,-2 5.5,-2 C6.328000068664551,-2 7,-2.671999931335449 7,-3.5z M-2.9110000133514404,-0.5559999942779541 C-3.2179999351501465,-1.0149999856948853 -3.8399999141693115,-1.1380000114440918 -4.298999786376953,-0.8309999704360962 C-4.757999897003174,-0.5239999890327454 -4.880000114440918,0.09700000286102295 -4.572999954223633,0.5559999942779541 C-3.5880000591278076,2.0269999504089355 -1.9079999923706055,3 0,3 C1.9079999923706055,3 3.5880000591278076,2.0269999504089355 4.572999954223633,0.5559999942779541 C4.880000114440918,0.09700000286102295 4.756999969482422,-0.5239999890327454 4.297999858856201,-0.8309999704360962 C3.8389999866485596,-1.1380000114440918 3.2179999351501465,-1.0149999856948853 2.9110000133514404,-0.5559999942779541 C2.2809998989105225,0.38499999046325684 1.2120000123977661,1 0,1 C-1.2120000123977661,1 -2.2809998989105225,0.38499999046325684 -2.9110000133514404,-0.5559999942779541z"></path></g></g><g mask="url(#__lottie_element_845_2)" style="display: block;"><g transform="matrix(25,0,0,25,300,300)" opacity="1"><g opacity="1" transform="matrix(1,0,0,1,0,0)"><path fill="rgb(156 163 175)" fill-opacity="1" d=" M-6,-10 C-6,-10 6,-10 6,-10 C8.208999633789062,-10 10,-8.208999633789062 10,-6 C10,-6 10,1.5 10,1.5 C10,1.7760000228881836 9.776000022888184,2 9.5,2 C9.5,2 7,2 7,2 C4.238999843597412,2 2,4.238999843597412 2,7 C2,7 2,9.5 2,9.5 C2,9.776000022888184 1.7760000228881836,10 1.5,10 C1.5,10 -6,10 -6,10 C-8.208999633789062,10 -10,8.208999633789062 -10,6 C-10,6 -10,-6 -10,-6 C-10,-8.208999633789062 -8.208999633789062,-10 -6,-10z M9.659000396728516,4 C9.692000389099121,4 9.71399974822998,4.033999919891357 9.699999809265137,4.064000129699707 C9.555000305175781,4.36299991607666 9.359999656677246,4.639999866485596 9.121000289916992,4.879000186920166 C9.121000289916992,4.879000186920166 4.879000186920166,9.121000289916992 4.879000186920166,9.121000289916992 C4.639999866485596,9.359999656677246 4.36299991607666,9.555000305175781 4.064000129699707,9.699999809265137 C4.033999919891357,9.71399974822998 4,9.692000389099121 4,9.659000396728516 C4,9.659000396728516 4,9.17199993133545 4,9.17199993133545 C4,9.17199993133545 4,7 4,7 C4,5.3429999351501465 5.3429999351501465,4 7,4 C7,4 9.17199993133545,4 9.17199993133545,4 C9.17199993133545,4 9.659000396728516,4 9.659000396728516,4z"></path></g></g></g></g></g></svg>