<svg xmlns:xlink="http://www.w3.org/1999/xlink" x="0" y="0" class="icon_ae0b42" aria-hidden="true" role="img" xmlns="http://www.w3.org/2000/svg" width="24" height="24" fill="none" viewBox="0 0 24 24"><circle cx="12" cy="12" r="10" fill="#000000" class="" fill-opacity="0"></circle><path fill="oklab(0.786807 -0.0025776 -0.0110238)" fill-rule="evenodd" d="M12 23a11 11 0 1 0 0-22 11 11 0 0 0 0 22Zm-.28-16c-.98 0-1.81.47-2.27 1.14A1 1 0 1 1 7.8 7.01 4.73 4.73 0 0 1 11.72 5c2.5 0 4.65 1.88 4.65 4.38 0 2.1-1.54 3.77-3.52 4.24l.14 1a1 1 0 0 1-1.98.27l-.28-2a1 1 0 0 1 .99-1.14c1.54 0 2.65-1.14 2.65-2.38 0-1.23-1.1-2.37-2.65-2.37ZM13 17.88a1.13 1.13 0 1 1-2.25 0 1.13 1.13 0 0 1 2.25 0Z" clip-rule="evenodd" class=""></path></svg>